<mxfile host="app.diagrams.net" agent="Mozilla/5.0 (Windows NT 10.0; Win64; x64) AppleWebKit/537.36 (KHTML, like Gecko) Chrome/129.0.0.0 Safari/537.36" version="24.7.17">
  <diagram name="Seite-1" id="hFGZkwxmBkuAB-ugHmTT">
    <mxGraphModel dx="989" dy="514" grid="0" gridSize="10" guides="1" tooltips="1" connect="1" arrows="1" fold="1" page="1" pageScale="1" pageWidth="827" pageHeight="1169" math="0" shadow="0">
      <root>
        <mxCell id="0" />
        <mxCell id="1" parent="0" />
        <mxCell id="7C1NRrJqVAyDI8BYBDWS-24" value="" style="rounded=1;whiteSpace=wrap;html=1;labelPosition=center;verticalLabelPosition=bottom;align=center;verticalAlign=top;" parent="1" vertex="1">
          <mxGeometry x="170" y="150" width="90" height="130" as="geometry" />
        </mxCell>
        <mxCell id="7C1NRrJqVAyDI8BYBDWS-25" value="" style="shape=image;verticalLabelPosition=bottom;labelBackgroundColor=default;verticalAlign=top;aspect=fixed;imageAspect=0;image=data:image/png,iVBORw0KGgoAAAANSUhEUgAAAOAAAADgCAMAAAAt85rTAAAA4VBMVEX///8AAAC9EUN2qSjAEUTDEkV6ryl4rCnFEka7EUKvED54CyqRDTN7sSqkDzqZDjbx8fHq6uqCDC5MBxuzED+jDzpuCifLy8vCwsJvoCZVCB5kCSONDTIqKipehyBLbBo6VBQpBA5CBhelpaXi4uIbGxu4uLhdXV1nlCNtnCUmNw2FhYWUlJQ3BRMOAQUXAggSGgZTU1M0TBIzMzNEYhcPFgWQkJBlZWUVAgc/Pz8SEhIvRBAgLgsWIAhYfx4wBBEhAwtHZhhTeB1HR0d5eXkaJgkkNAwrPw8LEAQWFhYlBA2Lu3WhAAAXVUlEQVR4nNUdaUMaO7ALewECyilHOWylYCte+LT19tXa1///g94euY9NsmRtOx/UFjY7kzkzM0nevbMD/Q+Lj5aGiuHj4kPf4nC54cNXxzm8WuwunBguFtF/7X3c22LA9OnFRTJeNO7VoeN8/WAJWyPY3dvb7R86DHy7eh8Tup9z0P1ovpz3V9/YYQ/78eus4q+A/hmLAw1n/f5isa+P0u7+YtHv/6satECKCNjbe7fIxgTBZ80hP2uOt4hfXih8+KSJCoBDHXz2OEnPhk+F6eS+6HU3L+CPza3oYzWFe0Iq0Gg3d4JP8yp5NnwQYvJjMHh+jf94Ce5P49+nP8iPD/v9fTmRe/t9xlIdJT9ng+dkqM3EnwrfapuJ+58/nV0x73ja/PgZ/74c+P5qE/0xrZfjX87qSRcdbspeVufxz6UfxFM3Kft+OtbL+fMP+ptXZ58+W+Nj/71oEu8G9fJyGr13FpTL/mDmTIOyP4k+mNTjn87mEn/3k3BcUqGfYkk8L9dv459BOXBOJ3407spxfs4mK7/OTVoMh3bs6kdyzMub2WZ2k+B+FOER+IPpJEIkInGZ/FxdXpbLwSpm6OAUP3bBu4xdctqmMcs29XIwdZ7q0TjBspyMWt4s/YjQIJky58dss5lRqm4lerogR9zU/Qjq5cnm7i5FIUh/AYSCwSpIKZz6JIWHLIW7pO5F0p3QFz058YnR4OjBvXPzvEpfPfhJPPjVAn0UA1OBjF/pQxSEECx/DiJiCVwuMqZt45f9zQ1NGTNe2QekLml0LPjFfiqaEZye3t293D1nUoYxgtjcApk6o0aF+hcblZkvJYyHo5e7u9PTGJvkeQtamBJ4CxHP5hxL5iTWRWBtvhCDfoGy6TvOq8mIZfT+Z1sEvktRefJN0EDoPDtLf8VZBCj2M99/vcszbiT+6QgW6IPStDSaaEThBNlA5z0aEhjQIz+S4kG+cW+SEa5sELiPsMkDMfr+hhZSKKDw8xyjgjmz4uu/AnQm+XCJwQeGJvUVu9sPGIDA5l8L9KEQ+6aeHx+ghun66TNUwPzjIWdhgYU4oBrQLzGZfxBTJiwEDPxpRhI93AbiZEEJcQLhnnrLZBKY0HiKtPAf0WjZ1PmDe2p2g3i0n7Thyg3vgQ1drZi3LmezZV0XyyjYgmY9/eNW+0m//HzORheD1aCeqKGFWC3VmEuBufOXR3fPZU3PH6R2ZgHzHZoWJvCX8TpF8PIpodVbAXDK5wKTEL391pkttUgELDx7d6bPwEg0n++cJ5ErgWbGxnLie4bRC/zJqXMbsVED23QYkKHQiGgT5kWLe+F7l44tBkYAFjbnQqccBFFQ+HMzULIRWD5glNXkBZOjyDWthFPnAz//zQp9KCv0Ig47giRTcb5SkEgtdEQCT1EQRLLp3E3EY+JEjZVscB/jJUNnFUeGrwplrBOrw2wf4ZcTCp4lNjrAiSgrOYuUwB/P568bGUaRKsY5lR+SGQdozzCBA/nXyv4gEeaNNEwNJhEqU3sEAhGd1LOwD9JpPcrgIjHxjlxC/TQ1Fw2U8TLfr6dex06iGxQiVtk6lsppLKgytCaIPunKJEiF03lWKDSQBhux9jukhKeKlVvg3ydadi407JSVkdiYaIRk9X+ucjswtLVVjgHh/6VqbRqU04l9EgapBIHihUR9mZQBLicqrwrps+MFY4DVMoWUxg4qCap/3gtETMFBf3CeEq8M4aG1OlMjrgtoTajMW0AmvvIeGsbbEbzwHwITdJdlXMBXb8AoC3sE4iLCSvX6iImpv+MiZLyI4x1qHNQm7FOnMALkbSxWYFICXwdaGaKgnE7xLcMMn0h002uJIABKpdS+BFare9sEAjs601z++WnO0pmSmkh4iWiuSEr8VVpj/KGZYPOBMtssaf+XDnmjuYb3Vym3bglNrL8QBJIshJHlRjNHAyPtQ4v0IStzqznJUEyde4g1qYER/IQDBYMjE/EkIm27ZV6YytTHA6gVMBtQahHcgv8H7HhReiA4c+dggC9qpI0AGdKZZjLFv8eoIytCwF0svpAdr5oJ4GACLZX9TgRU77rUIxDZgihMXzEF6BSmPhRk3RQpjtctZNNYSBPcT8ulJn1xuhesAG842gBzgd3RL+wEq+UyabuwUflkAKQzZatQIToDUQ+IiJPa4A/SiOAf+wTCkteNZLEgpLB8KqcLwrPBeFCx7RTnGfgHYaRfEgoGSgoN+OcvgUuxuI4gAVUp7u61k/ZU/CKCI+2Sjr+CHkLSlrI94F6gl3tDdygHzakKBjilY6XsKQSiNUnTHfqXApoo0CzCEEnHIhtkgaWZTnQDD5WERiGNniwE5ckk1cBiOyqBHk41ay6+hp/QK8ME0MIUpX8AUC/sZqVRHpT0CtKgERkFfvkeBkMW1/FCwB1Kt9NVkC1ebFuSBG4Uo0TUIfvJdUxZB6qz626WidmKo0UMsyxXEUxeye8W4eFp2P1KvG6alapXGxgI51kaTcYKXwvu2U5hH2YRbwZ1qR4GWvoH4VZcJksHqj+DoP2smFZmAewCl386u18N4lIBy4HI5glXSHKYctnseNjyYDCZgvjs6i13ThAlNefy5cfrhkqYBsFStkKSwynreqbnR7ekl3nbvT5fGfRgSTqI5n01FTbgq2E2gW2hMTAfWiq06MIuvf/mOenG9evl5fNMY4Ukh9enycpPAWajUvjvTbf2xEBuVzl/2mw2s5ucjOPg9GgWjbd5IqaqmPVRNuwuroTt+BL4NWw1q5UIOt1x79iE3vdXizdnHwDtnT7zWqPkua5bisF1Pa8zbmsT+Ol3kSfeCiOAg6brpbRhcL1O7Vp3gN+yg3BPsRsOk9cNWepS8EotXQrfJoKhgGXffDjq1VqtWm/UnlMf7EjIS0ns6ZL41kykdjId1LqRyHmxkiW/Slj22hU5eQmJjUfwzetRa6fRiRS0Um2Oe+0TlsLi8hQC2CO2dTy0Oh6jYd4afljzMsmLdbEErE0txEYomqZStcaY2ou3E1NiyRTZD45F7hh+OlbSF0/HKB0pZEbxvMaIJrH4pVIKOBA92eGsYwyQgeNQ8KGUwiY/U16n9xsoxPwb8dyLIBxC+dSjL6LwIP76o2gwr3rw1hTuorftCAnwoO0/1pHPFCrJA0PReG5I+ZI38PnQvqwbQgK8JsSlkW0/BZPSEo/YXWMCC0/JwP5fZ10V4u82ICrHugKaQPpMU0ihW33EFH4vmD7UEiShr4pme6QvoRGX2llcdzuEVyw4bQHaLWRz3cEu3oxAaC1l84YJtNPGLANYQusJ5Y+kzznIRaBE8rFmF1L7RAAt6LFakhynYkIgdC0yCkPC5xdoSSEDhapC2YKYywYs9PBjMuuFBy+QheANQxHqbpWNj/X9hDcmHhNT6O7gbxRGH6y8iDDwGg4Ljx1NCt0KMzOiCfRwSFNY/QVktNuC93tdjj7H+aVHoeuyKZqu4A0utjMWO2EpgCaGj4ppGSOgqeHt3Q6fghKF6e4D+rggMwMk9JqfXq8mpi/yhhWFqXHD5lrwnCBQ93BQWpCMglU858FddyRAEcC6VhEuqcCjXkOSXRvxD3XQhwWt7kEWlJVQt3IgxhGSOGrwSbVkXrzKjvxRPtnhIVEuJuSGKsg4cI9zDzzMRzsVkLNJIf5Ho5WdGp2zJsrDq99Cshcgzn6ktSPckeDHwslw1NppdiNoNlu9oU5umzGmhB0tpNIEEoWUl3c97bxfJjweDIfDNkd0i55M7C4LSSKCagsZgbkdsQ5d/5o/Cj8QwUkkvyXPS/KN1fGQsqnDEimmOKArpBYDChEt/EqRhX8cthqdSE0rnepO74H7mIOHnRJhgTjDMyejGmxlCmmWAal6ZERdlxfPUTcymOgLfOKPg7Eg6+h1SRKJPAZecxTQD4uSMV0XWk+OP7zLc71OFokHHfG6OWwSlhn7Cw+NVUBHM9qrnBIoYF9PHLSEXakbES+b0+HJeYHlDUyg1T0TAKAbjAmMppg1IvOqLCZzSxJvnpnXp9xPO+U0NtlF5C0QgZG163Ioi3PAULSG7NeTR7IDcTqAqJU8ytMXEG5DAg/GNd44ijOaGFlBzKLM2bgdUkquax03xBNVAIFZ9dwdZXbiF/eMeq1I5bAiOCbkpgBPn0GfOIdI4cqt9xU8T5+qit6WgnX6vsvfpeYfpT4JCCstPIWiPEEKljPcHzMaRvSKSBU66NFhYClrJe28t1lpyjrzVpShUaOqmzR1M9aa9tb1X+QvcdYdTVSpzJkw8SgkMEMNre2wy6LP2dFNflLOUPspRnnXI8ql2kkBE/5h2G0yHk1TQEt05tYorU88duB6YZVcNdrwFvjo4pNu6JLONgZxnl0IOGfkPJpk9QnlTSYqJLV5+2IarsgPQVRP0qetSxGEJ7keI5QXBK9kqWn7qv0FMzqtFAYMJJXQrHY4Yt9GhqnbrgzRnjrkuEjny/a2ZCOKZ6ZmMC/4hXP0NrJQt52hQQJKOGYXEzg2QhRnplsmz5W8E47vpPfYSkhhRyG5NA3xYsIETaIBypTAEf8UIUfbCCm0oO1Q8D4TH7EVgdDBUM6TMK5bWFIQgV5TbgvrkiGemEB1jx4FQB7pgipOseXPX0AG0nEH1iWDVh/qOTMrGkG68qVNNrECy81CsDmCWXtjTpjEI5QVNZPtUngsIBD3xOXeUgFNKMMoROAvo14mQnedtRmBwINW6f8lLGlOQ/pZyEAcVBp1wkQzPkcIObpLEEDgSEQgkenJmck/FGkgQaBRwFWiYjwjBwotJhs24fA9Xx4YSii3IQCKqEkjDJN+MJsbCYHElOWSUbBM4ivWrVwEUjHs2uRJ+ChHII5ucy2bPoklFLtYM2MfUtlUQadGBoFD8TPY8eRqLPlPYg8QK4zkjMk9GDmK8ECsuFjq8/h6kMlec74AmXujllePqTIZBQmpo+cDJxz35yjag9563hegnqqTfMtWc/YD5vM676HUd46i/UKmaCEqGRgsd/kEpz4Lodnm5wTHozmszAfZtIUIR/3cGJv3dUwWy9BYPvDaso0ZBXEMv/jG1kLfjLIaGIPWtpgEwORcc6hgAnOkSAGBnGaTDls7fcv3Wjo69aX0YRTcZzjCHMGajIPEqkdbRl1hu4W4MZoDHMNyjnCraFTQFpMOSkibph6FkkYELREnEsbcZGMjkyP19EVGIFkO6eowQdZMqreydzPSqXgfXw4dBFaUCzk8EsMHHQzlRT62V0s0OwT3r9lvY0efw4qCfMUJu62PthdqHgiaucnnFRTS3GeXvFtlLeAR90xewmU2FquEVNjMTUBmewadpeeMGoFLnv5K8ChjutiWEMk2BzEHRHAs7nYS0cdaJYzLfznog8sl1sqwIclJBoV63ZYtWc+zx25DZ6NfFIrmWi4BM0rbEZHFEG8kjBGs0h2g82GvFkFvOKcHOO6KSPQ6fP8QFcASuORa8MKUBcUhIUtqwq3y9Cb5h1q3FCZtzdGPsNSlu4kOmiFNo+uVRP0HlE0jDGy+tBrIa1My6s4Fr3XmTZZE16uQCPaqHAFhlZqr614XdXVHf3TFscGcHARXVHM2qQMZXRN2VOrTjseVENrDCMNSk0SwJ9xZwDOp3Ws1G43muCbvVidklFiB5exGgI6CbEmVd3+u261mtRNBtVlrkz1YQ7mZFKlZNhDBDFESz9uED+wowcKO+LUEmdz/jDP2hUQk6jbtQ0ApIiLAzb1PBJoZ1PiY0XgkgRNpGykcssr36WUBdIWksuQvgcIDcaCzZxMrSpgrzuqIMa1otK4TkBp1l/DHW3SooxuJ0rVpaKox85LGasMtGVH4kBJIeNhttsHAHoRfMSfUYRcD15r7BzuqzUEHtch+dVspUe24r5+ws9t1IcAuknknNKZPb7VYkmU0EIyqsYOMvU+6T+NhPCb4t+VGLdRmsW6bqYpjUrvIMl6Rl0Hz5Ala87btBBJ2Mh+3mXONRPDLpElINtya3kPKS9H23WrsNe3OqBFGQWXoNWrZRJrUV9ymeIwha6U8ZgOXjcZf+hjDdRVKTBQydjN2APJp2iwIhdvt+L5glw4MrGzxodtFKcPheg1pR65ZEdcVRTSiZvcK1YlvpSWWPGqTMxyu1LYa0RcB5yrEB9bQGQUrGyV3yRH57gFPvIfQtIDPhfHXkiMfKFbb2R9CnDEmrFuGIiNvJqG8jEqDBDLet7RZmVBCcfNWKLCBJp2kHOJZQRBxaoetrnRCCSVFPa/BnsNo1mUQQ4VSQnmQR+6DsrVX+RCNKHsre9SKaRdUifFwGdVRQlmtbbJD23qupa9lA2azI6sSxAnOZG2GIrK91rb3IBmdyyfW7VCLecM2L5rAzH0/hDWyt5seyuhDhuWg+0S2ITDbw2ACLe5z/axBIJ1xMwvUEgKhO73O7tLEYavFzfRw0XSSjSLhD41aTFKAyzFFkI4JtLn9DPr6bBTJ2qhZw2QJ53vaCt4jEbV6JMkXLbRdwlnrrubRs3BVr4oQUE+C1dvdYPZJIT6EkBrt/YjxBo8Kj6gUfdHykStgUFWfvYt8hamVgX5eGeJBR2/5MASQIVWtEYiKnlkwCp2MkoFI0S0fewTyh49KTPOdTonKchodbGB8y+fjwS0UKgQILTTadABsqPpUWRRPWD6GE1oZZVcFjmeMzjbs6ek4EYraPgsBVEPnKqxDHFLqayFii9p7QhW0fjAX9IQq/0bsUMoM7GisQRSjEcHCqbB9xymK1pS5FsLZ69oZVPhXSyjScfsHUsNoTSVFZLymd94B9i1qoYbr/gKOjoM5fJXtoPowdJpeceJxrc/AAk4jQdlDhfmn02PqbjvioHD1XgMk//bpw7VCxUk+JboClN2LVnLJfKjSsSATXcgpuIiFqgUbRaDzIG2EKrG9UKpcKlbWYg4YhVq4zi7cuux5VpLjuiKEK3TflGrmUJ20qOtD4KEyx9l4cJVS4RmjcS8UU4/IjgNx4q6QU9ViQNm1TGfIndibPNF0PY9ohfLcJt9TpAh00bjF3YKGbsvKMjTiFvvIRtaaVTeMwI17oUTfyCQQ+9cib9FCdZiMdZurfZ0SC1lhoIumpNAbGVDjjNOWtsAYdwshkG/DIE/XK/ZuG1yIeZA0acnK7Rog9YNuB4t90dcQEudXidvsMhoSVSBb7pKt20XfUktR2BY1SiobEjNAfElAiZiy4umjzyDjW12N+9lIEKwH3XBMVHXegj6mK2HUIO7Ncr2sM8U1oMc2Prs7pNN5q2tAPx6SSM173Y4bJq3mVTY2IWD9cDCMr3+LoTZqH4tPOT7owvmKo4FqjfzW4VvdnBXF3ezNivOD9lCGs+NcH9R2qhXXI7vOvUqn2xoKnnjo7cSN0Z3ueERHDG97z6L25YrxfoJK6IkWTRGhbqOle1vmW9/PxzFRCCc1dj8BRySzvUACv+OazL7yCsljdruHmEb1NYv/vu0lw5jEjENHI80TX20nguwLAb7/JvJi2D2TonWg7kcnuCjvaj77XXe4ApAdXWnYhSDdP2E9wWsM/W9CxExbucQR3rffKJ0YuJ5gx7wRSHxQ6ptebJoB+zxqpgQK29ILvqjOAHZ5c2ooovxZF87332xdaOhfMOipukFo4NcgF3+E9pHABm8mx/txm3V/z+3XCtj9TOOof9oI5yM+/1HSiYEhUfMa3lI4/jvIi2GX8vt6UsoY0H/+YPISWBAx+FBj+2CJtC//vk1OYkv4iCX1RHTRHsW+LrHm/eftluxbApGXyry+zquQKZy/gnsAyNim5kpIdGnv8OfELTpAZd5qHWH1rEVFL3+cY1fAHnVDxXAHnyOQJGMqTTp2eV9sxaEQoBcZ62QfbiWCTqfZajMVqD9l2WAGgms4Th5PRMW1v8m8kLCnlXlzPv2F4gmhn3FXDNS+v826MLD4mknexd8qnQT0RSmNFK7+cu5B2F1cHXLEHV4t/vSw2gg+Lr5cXaQJuG8XV18Wf03Y+afD/1gLGQ90sPzdAAAAAElFTkSuQmCC;" parent="1" vertex="1">
          <mxGeometry x="180" y="170" width="70" height="70" as="geometry" />
        </mxCell>
        <mxCell id="7C1NRrJqVAyDI8BYBDWS-26" value="Raspberry Pi" style="text;html=1;align=center;verticalAlign=middle;whiteSpace=wrap;rounded=0;" parent="1" vertex="1">
          <mxGeometry x="170" y="247" width="90" height="30" as="geometry" />
        </mxCell>
        <mxCell id="7C1NRrJqVAyDI8BYBDWS-27" value="" style="points=[[0.005,0.09,0],[0.08,0,0],[0.76,0.25,0],[1,0.92,0],[0.91,0.995,0],[0.57,0.995,0],[0.045,0.955,0],[0.005,0.43,0]];verticalLabelPosition=bottom;sketch=0;html=1;verticalAlign=top;aspect=fixed;align=center;pointerEvents=1;shape=mxgraph.cisco19.3g_4g_indicator;fillColor=#005073;strokeColor=none;rotation=45;" parent="1" vertex="1">
          <mxGeometry x="280" y="190" width="50" height="50" as="geometry" />
        </mxCell>
        <mxCell id="7C1NRrJqVAyDI8BYBDWS-28" value="" style="html=1;strokeWidth=1;shadow=0;dashed=0;shape=mxgraph.ios7.misc.bluetooth;fillColor=#007AFF;strokeColor=none;buttonText=;strokeColor2=#222222;fontColor=#222222;fontSize=8;verticalLabelPosition=bottom;verticalAlign=top;align=center;sketch=0;" parent="1" vertex="1">
          <mxGeometry x="360" y="180" width="71" height="70" as="geometry" />
        </mxCell>
        <mxCell id="7C1NRrJqVAyDI8BYBDWS-29" value="" style="points=[[0.005,0.09,0],[0.08,0,0],[0.76,0.25,0],[1,0.92,0],[0.91,0.995,0],[0.57,0.995,0],[0.045,0.955,0],[0.005,0.43,0]];verticalLabelPosition=bottom;sketch=0;html=1;verticalAlign=top;aspect=fixed;align=center;pointerEvents=1;shape=mxgraph.cisco19.3g_4g_indicator;fillColor=#005073;strokeColor=none;rotation=-135;" parent="1" vertex="1">
          <mxGeometry x="462" y="190" width="50" height="50" as="geometry" />
        </mxCell>
        <mxCell id="7C1NRrJqVAyDI8BYBDWS-40" style="edgeStyle=orthogonalEdgeStyle;rounded=0;orthogonalLoop=1;jettySize=auto;html=1;entryX=0.5;entryY=0;entryDx=0;entryDy=0;endArrow=none;endFill=0;" parent="1" source="7C1NRrJqVAyDI8BYBDWS-30" target="7C1NRrJqVAyDI8BYBDWS-39" edge="1">
          <mxGeometry relative="1" as="geometry" />
        </mxCell>
        <mxCell id="7C1NRrJqVAyDI8BYBDWS-30" value="" style="rounded=1;whiteSpace=wrap;html=1;labelPosition=center;verticalLabelPosition=bottom;align=center;verticalAlign=top;" parent="1" vertex="1">
          <mxGeometry x="540" y="150" width="90" height="130" as="geometry" />
        </mxCell>
        <mxCell id="7C1NRrJqVAyDI8BYBDWS-31" value="" style="shape=image;verticalLabelPosition=bottom;labelBackgroundColor=default;verticalAlign=top;aspect=fixed;imageAspect=0;image=data:image/png,iVBORw0KGgoAAAANSUhEUgAAAOEAAADhCAMAAAAJbSJIAAABJlBMVEX///8Dh5P///7//f////0AhZL8///8//wCiJP/+////f74//////v//v0CiZMAho4Afol5urUAgpGs0tLY7O3A3+YtjJEAi5IAgYxEm5zM5+jw+/kAio7///i83t9iqK9lp6dCmKAAenzh9PMAf4Z5t7hrs7YAfYwAjY8Ag4YAe4MAe4gAgoJYo58Aeozp//+azs8mlJEAh5rQ8e4AiIROoqnc6u0AhYB3sbaYwMa61NbS5uil1dZPp6Ewl5ry//mEvsdrr6iEuLKjw8ZSrJ2xx9H0//Ggzch8z8rl8fzL7u9Bpquu7ec6malmoKhswLsAgJm04d6jyNOW0s+hzNQ4j6Pd+e6HuccAjIKIx8pNmqqh3+BAlI4smqO+2tfb5Ov/8f8AdW7mloBYAAAdI0lEQVR4nO19DXvaSLJuS6JbHy2piYyRjCQwlmwQYMDCxNhxjDO7d+eG3ckJO5nMOruTPef//4lTLbAtBNh85J577/PofWaeYCyV9HZXV1dVV7cRypEjR44cOXLkyJEjR44cOXLkyJEjR44cOXLkyJEjR44cOXLkyJEjR44cOXLkyPE/CU3T/r+TvB3+33iLHFtBB0gSQiLSXDeo3NzcHHyvvgtcAr8zZEOimi4XtpYqyqIkaQVZFxGS3SB49/07SK6UuNzkeXJBl5dv0xAh5IfrkSRJPnJLt2/eX0QhIIrgn5Z9d346LVGk6ZSo0vZSDXns6wi5lf7psOy0uFQu9+SyXvv9sEQLFElk+S5Ng3bZn1LmVXTiVkdlFjLGFIwZsxUsMPig4DD615uqiwx/RWu/AkLhRYPb44tOxOWapiAwZiqK12TMC4X6faWHjDW3khXU90K1poTASIDXMJln28y2TbPpeR5wtID42eFOYuntUdgS4hgLAvAD4TaIVkzBsxXTZlGj/BCsuIt8HfTofnyeIRFJIu6vdteCBn4BXqd862qSWjA2UdaCTIjqj4PThsNekoqx1T6vyr4sk6c7ZT/48NOf/vy//qL9mJlFVsWvP5e7sfIiPwFDqxftvlvw/U20R9N8mb4ddSLBfIUhCO4Mq1Qbz+80NEQ//O9Px/3rAy7mBzDUabXctUEXX6FoClYstC5ue9omfUhk8eOo4+HP2LNflivgWFGi88mjVF2Tvh9c//Vd+29HiOzNUBN9NDgPMcMKdNJrFL2mGVtRvYLQWHqRJRh7HfU9FsfJoHtJqKLAcIQxqoT3SAR7LckyoteV619uT95+cul+DEHJqaHdhtFrjbwATzh501PH5KUhQnU0OSq+qJ1ZogLu3r2VdFEqGET7U/Xhj4v/QHVK9utCaGnknrXtV9VokaGFOxcVbY2Jn0GV+21me6/oRBowGs3PUZ8gKqlEDY4fRpWr6Qg6Ya8ZAxgGZdBPUJMtGMYwZD14F/GFZwe1IjPtl03zIkBZBWaHpz1NJq6Gbv46LT38OUDSHgxhPiX6RHAwb+gtGlvAMF1iXKyNDQpunJhtNeiCQklo8El1C6EJbIwb33o6papMguvrGzcrfDuCoAD6NNxmqKRZYtwpBzoylhiCd4durixQup1gR98+6vKY+4cE7eIkphhKKpq2tm/nJ4ZWHP2NqsteM5F+7cSmsCNFhuOLQJVVKusw7e7l1ICRGrQ9IV56dQW8RiDgOEUOnJh6M6tycAG2ne6U6rooprpRkwg5PcEmVtKTKwaV5U4b/28m13Hg/sSFy4wPxWbO3UcZ3HHuae1DEDyZUrTczOAOwyPa3tHo4eDw8PDm778f11nLAf90ld3AxaloPIdUMH1ILhpFyz1jmhaM3UbLHI6uv1RB8JfTWt1pMRu+T5yaBRTfE/kHeGsGvbBWaEkz6v7yMAlcpMu67uugJzSo3peBpLc8ZBW7MRVV7VFRNU2U0SjMqgWfQWMhOhn2E19a9nkgKnK5p+UTL1GHzOWNkf4Dcgz0eJWR6TZGA3A8QUWoOgOVDV13J2+uwlUNYramVPMfGSJKT6N4WTNspXh5XdJ1zZClmVSJx6K+QabvT5wlhiYOv5D93DWNSKjfSkcS2PKagsLYdQ/5MJWD4wQDisJ8IsOERPmI6L1hocXnzbSyYiY0/qbT+buoOnoIY2thblXsZmyFd7dEL2g8aJe5UI5CAeYr6P1B7XPsZYaAwhqVgrxXJxJ/0rZwSqoCM5wXjQIirYk6qS5+vL4E1yBrGhxW0ufXGOjX1lL/4bhZ/rtbWGMVgbU8qXeVrE136tTfPmOSIqiN6/GCn63YgndRJT6fhVZC4vF96SiMvOygsX77SmYxjnyYtV3gbOJw5BLZUNcw5K097od2MzNmnL6sr75lI4jalxAvdobHPrmyj0CJVpvoAo98ffe+nR29ShxBjJMY9uAyznSFKTSEiq6vz0aAydThiZUGW/QbLfMq2MNdQ8ZXtvAqrImd040EihOFNT0l1VVgJxqn0lil6vgPZ8Hexh5j3dr4daEAt47tNEcYNB8Q3XHG573002XaHnhdwTmlq3J6S1C1r8NwobW5se/cqrIhg7PNUgxtIcaNN3SNei5CLPTqVpoi6FeLd/5ODImKgshWvGdxTSUCghuJo7JGPoRNe5Ghxz6OtX7DZmldMwX76gv1N+oGSUO9urKgqKZzTDfKlqyQJvn9Ymw/tbaiMKdG0BhtlF6SiE9OW8rz7ZyiI9RpqaHYyrPygxckhDcwQDNhpDZD9p3AEA/KMU6ZVMacd/L2ycuZtPGC1wEMy71tRKn0tN1cmDW8uPUAXZD2RIF4e7rCL5FnWJ4JJDTtCguhuDNCu0VP1JimRpICXnZj4m/j41KgGKZdcXxhmQwMS8p6NWOzPfVXjMHVfYi4M0cewoWJX/GCF/MIayH6w5Q94OmRB0nfRpQkGeS0aKYMqgmep50mKHi4cwNx7FJ4LNIZyNIDiSxTxUrP/HF042ev2gh6r5PSUuzhsrtllEKQTr8xqyk8e6oQLqU9JIW1/y6irPcgUvG6PsNIXDXvfm/hVOPj5qfdGIoHHSvNMPqyvbpT7WsZHL2msA7dN3SZATA8dRiHM0Qrfo/oMD1PK83GZpPpEo5ZasJmwp27vQii+5MQW6sZguI3hnRF83OGFgBb3aFIVgxS//AkJce229XtXw1Ay2l3zYvv/e0tlgYT+UG4Jn9lY2x9Vemy1KQPzSRfMEQrGdKj1ACCGel+B34IlZy0KrDGZFcP97SzWkObVri67ROG/ArTAi1dZU9RPzWATCGqI2nVda+gWlywenW6m0lGY/ViNUOrc7/6jlcZEjRIDSBTaJ5QdQe35pqlGVp9cAq3FwKQ9HfL0SCHc7Sm0RYZrrrCoPWUlgpma6CuWz5dAx7c16Inz4HbhIovpUaM6q9Z5vX1rAulutJPSzkZk5lK+G8j8/oSKvBWlChKGGLB+iuRJZ5BEHUj3ZcaHTlPrhH0Q3tqSNtZCWBI6hFLMSy64/SQp+7bt6VVmExKmcaEmLB3ZGcWVeHtiqdonLEikluZgIy3g7cjPt+BJ3vEf+QI/DRDiRy00n6N87O+pZpqRHWPvDRDm1A11Up6cMldSrYM0L0MQ02Vqh0hs+IRx1HPH2fmOjI9mQtJ3p6nnuARCvf5+3qKoSahw5MFf/ABbc+wV27azwytOxjy6XH49lKx+fJ9FjgeZh4FWibLny4X8xamXZwWiJrV9GnIEiG298jQFpRkZbGfbgwg+7aDU6Yej9CSrJchq3JgKk8epRmzGllIEhnBmmy8jY9WyJMGncXLFXbkLhvJwlIC54lCPzNXuVdCKhOEj5G6nR1MGDLziaHFRrSQ7hsjUFa/i7mKoUbRdSbD3Zjqy+7YSwwzBGjnxzPUFxkKWzAEtRplc2RbMVSWGLr7MtT4kmjqtZ0aOBIpSwMNkNiBJXg4Ow45pElnMROusF/cAiUZ1dMPIy7WZM+JCpsHpmDSFrRU1IAhTqdIattamoIMlkZ5svBgS/+QXCnVSsDQXLY0/Jt4mJHFA1k69IRFhma7j5YW3wuHIa9YMOdZCk4Nwkv4RrG+pGu7ZG5pBCVtaUR1u3ybIUu0ztIMTSqnZwspaDgrYTnvM43JV9gPPtuLFKH9rwJNzirq4VUXZDRYZM0ZCo2IcbHdvrbI8DBMB8H4QV9V9PYyQzR04hTDtuun9UAbv5tUVmOQMdsaokHZzpQZKbbSOEPZ+dBVp4nUwbuaMmP418og+aLyNd0aukgO2p75PA6dn/2tHVOwDV66RKJ46Kd1ivuoC0ues2+TbzLfSn+RT52l+MkUcHS41IdSIkMkM69NUMAvLUj8GySmPSUwEyP8JNK0zfZUX5L1OsDzTr2Xc6/vuMij64dhlt9MtS7cTTzvVdGT1iun1trsZjQxdmD4vZjO2SnlXdfK/d66QqNmbbXMBYYr10cKk8YzQ2xfdugu8WHgpKtnzLC0U1KSIPqpuTrG98zOAVpVBvMqQwM9xOk+7ByJ0g4dQMpxes3COtV30FJJJX/qxKv7EJSrO5DWZaJeYqi7dynPwPash+3fjOPMSWup7QXbM5R1tRopsZcll4B5zei33ook86sM6c1lOovhtae78EOF6kJ+pWnd7yJkwJiwXJwxa3vb85xjdznZ9irDXj3t0ChNZ7dsotFrpXPeLMYrE2PrAXM0t3ngezw2OF/DeM55KwpMtMVTUZaztegaOlXKCY6XDAiBEXfQ+Zx22bzRrouktVSeE9zDxlnWj3yFoSrSupPOcYNbB/NgukbIE6I+0TNZfSJr6jyr75Ksr2KAQ+mY6aHNoupuJUNUrS7MY1j4PN3O2Ii9T85ikZTnRZHQTH0Dvk6rj+RFFhpxfb7wRAiR1CWGY+lMiNNa6pVXhJqbQCbj39IMFROzj1stELi1hpfOmwuK1/rn8YLZMb2m0DrIrK7JogrcJEmTNE5yUaiEfm00PTuV2op+32hZehm6RvtdIZ1f8diFq9KNqsgIDK7x0DIXwz3c+IB6jicslOuZStT3JWmzlySaX3EWllOaLHq7am1jA8ia1LOVdDENU6JaT90oTIE3duvtbMk7vvsoi1NnMQECQzO6djdaOye8aNprpB0Rz7LAPOzWhwXDQP3ioqlvFs96G7WXi/59ISxVDbUmmqHrD21rwfxYWIjOehtVKqiFSdlLpxFNIQ4DlM27bgijoOvub+bCmrQndM97RmLd15WTiQVDGotg0C3TXvRl7O7PoBhUpecMpwajYnqm4tQHfPhJ2vpchJGUvTPbaaZVAEdvEN0yNky/Lbpt8Tgn1Wa2Uy4h0Ip1VY+Fgi6Ptd6HEyWTmLExG5FZANYrLyV57KjVJ4ZLXyiD8H0N3Raz9avKVW9Xdgl08VPaxeV6H5vF/lgi4hqGsiERvcqiOOuqefjbGOYBrk+F0j+y9Yvg3hSPS8jQ1+ub5H+tFZWM4lutW223QTiDJmtBaC20t2KbrDicrL1FRnTyKVTwUjjh3AXGY6WkXM1EjDBiFb5VJCis1zd6azuKnUlispqUTRRsjZurxSUHaERsOacl5MsQslAiGaLMZwee2ZZUkUyOI4eXMy9SbDJl8tw/GjooNuPUlJZsA8BKZN4HvKxZlnkFpiGDZIlPTrKv02q9zbdDpMViy1MGu4/BGUQkj7KL1DwFdnl1fkORzrcbAUteWEp5xXzv4FvDWq79VTwwo8ZTUQn4mrTfWlEtzRx29WFK+Uw/L1vlMz64ih/7Fx28tBnJjltTtOT0bA1fHWbS1ZzhZ9OOOse3gcsrlQu+X9A0d9Aftrt4VRW0GTUmuv60TRAMDkxEJ8vX2WYcf+6ys18HYJJAKBcuu5OH9yehvaKkmIV9fd8qdgD1g/JiBWaS+OX706xiaA9Hpw8AXnDebgA9vLyxzVQsc+IX1KcIgu/d1cSHIs7uY8RJRKVYVlsZnj3JbXEXgXnZydUUuh+SQt59C73lAh3g9Vu6MLYSrN82gb2oPNHkrAMt0S8h31u7+sZnsesWMhS7WHNXrAzswlAlky5eS/Exs7/2955VDzQ/6zrCyNX+2VlRgL+hVFv5POwtp5R3gQijAQ06ztpnKTOs/X147qpjssRQ1sfk35drO4nTe0mqUqz1fBDxAxgiUS4Y+uAo5Hs91iUkVr9kE+YIK7x2fQjzSCY7QIhuEOQeNeKFWsVNxPL8ISueUVnU9tx1+Axfpb3jS57c3+plFCF2LqsvbiWn9xGOcdaIvEgQEMfRr9T4kadm6Jpk0OsIb7cNqylY4fAjX3Rfz1HUq1Zkb7WHVMFWBx+K+niHHPBaFHQfosVq3NimsWG+avVdTaIvdaKsIndU3EZPYax0a199V5WWajb3h3vfbShmk71k44RkXcm24RKn1tvoHei03HC8prcUTi5L9mC+tD7f/nBmj1D1wTD0hPWT1LyVPcBl9K1CjU3qlMCZpf2LMI6XduCtoKg41unX3apJNwH1DTo96rzWh2bTC9vD6l/kpfKolQA/W0e9h3Lbe3XDM27/401J3nHvwSbQCfV9clhrO3wTCI9j+Br7LF+IoWcVfowF/M9anyZUIxvufCwUiMhzQrffug74ghbme6usp/IcrjGxwHdosCi6/6iDG7PPNqDNEDxcFB2ujE0OGx4ObwGfPF7p4xTr/cEu59P4dHIa8YohxQZZPGAEr827vLxg0Lkxjk6Gty7d/+iETSCrKp306+ViUeEtDoPO5ueaOJYThcKwX+IHVuxQqWloBUSr93UWhZbDj0vhCqI4uGFD55WPDyBylDXtxx9GswI8GvRFElT6o/N/eXax1ToJQ3x3dP7mtuJSfiDQTm/BT5nhO7ODav/N0R0LT05arZZjlo+G9zeVHhF1Q6boh59EsxIQ/MiPqTZeo/iWlykGbhL98RpJgpYW+DdBUgQgkpl+0yAISiA3CNykvByYi2Sj3To5toWmaWKC/wOCueQfdLLOfu8x36H0gyXzDM1s+el/ZOTlyJEjR44cr8NXk6BTM55yggtL3ZoqJ2sSVE3tMSVSQTP4KovIK9lllGyG8ZM9A77kF3xd4jJdKRvO+hCEyvMNObN99sRICoKkvyQ3q5qOJCpTCm6c71OSTeLtBvf0zegN4Dl5p16PTt/MMLo+GLhiErNJfuXx25+uv1QCiIGTrLSmvUvu/1lOYrvg99Hvo9GfCinJzxi9laSC+3vysZ9sjFK1a37NwzhZIIYAuHRdq9/dHR1fV6jxA9YtOCpth6fY25Wn5T33js3z7paiOJ2jL1LSVfq0O8/GW1a3ZX86JElATsg0ZJbVmFeLBsW25RSPuZygFT7KmSOcylTvJR/tVrJOSekR/6lOk5uN3lkYMYsHxZ3OcYm8lMnbDKJG0IMV26ZtN+6fimhpHc/3zPAqLstq1ShfEfMPQ5svrnj8csHrhOdfkzfQku9ZDSWdEtjM9uxa0lJd05uH8wpIUkylU9VU3S3z8qnP8TnVRaSK5/As9guRJSRrQVn5rAhwv3dhYieqrNxGuxVkYOjNqqzs8lP8Qo8wr0oDMjbzmp6Au6dIJ6p/WOSZKAjJIfJX+AmA5Z4I4ZZYLZrPuyIChwlMSBh+bTMBuCfnzOGYL1wVKwYtuHz/qsnik6oBrik653nuukwkDbiHdpLxt5OMGA6D/cehrJZO7CTZ3ewOnvrwiO8TwPy0qmRFA+NiRR/PGMK17cjBCt+1ZFvHVJXoWoZBO2o0GsXklXEYOo7TqaJHhp5i1l0jxRDswEME+mEx9lsc8UOHrOh0yw1Py5DG2q/8+A94SPT5aV9HwtBqHFSr1f5Rkaf5um/QvA8xGx5Oq9fnXcyrUltT+gJD+cv36uHtLU/0MOefNyDuIEBcS2cnhynOrSg9MQSr2gv5EqMzGvSCyjBZyGy5+yamdKLXmeJd/uJZtlmn85OnOEPmFZNDYd1/mTzrVofZImEosLPkzi9FzBeuzyRKC9WispJhEtGLbhmUVDmh8/yVNmfIT7f9ZYxSDKVbJ/no8tNfg7J1GSvh7d4MwfR5infRjxTTawRphs2wxI83mm87LrvzPhSUswK/aHzG06rYdEFIlX+/giHnQw3O0BZOqLzAkJsyofGz+sxQQsd8ecj6oksU7NqZcxmbbLQnQSQWvoSeGR4HJ6bZbPRXMBRvGysZ+pVkn1Z7oJLdGPIkqWf2Ugx7vPYcNyqGxNeU+w4zmVLfO0T2v4EZL/6KLrDgWZ/4mRVphvyc7X5ibO7GjwyFGUPtbVLE0ZiqXEu3Z4j/gCF3+fkePTMceNyoNwYyMcDE34TMthVn33OS1YDvH2sP9JFjwuQcaIlbAgwFr9kGr4Wo9I4PGjbUH8chPpsNqNlocvriDn3IL6+dRsxj3fGM4RGR9ArcaQmtYGY/vxf5USKdvfvwtmUyU+jpt6EJCnKLHhkqNvQhpe7kQ1IlGz482tIsw5/RbloqHPeKMOGG/yH92eIMZWAY2pxhb1aN+t1JGO7bh2ItEryohvwApCtWjSb2b8aQn5keXUVJHV73qySv6UPOsL1DHx6je+4KOaXzZ4ZewlD9YQw16CNbYXbU931pyLghCxJPkzM0+a5r28aWYMdC8ZpkGRLwvRKGBTKfLeb7IAPHNjfoQ6uGelcW9pyzoTKb8bVqBK6P2e5pifv4PbQtz4r27cPqlcCazu2/K6WRw88/rCbhTuK1zTcU8Ln5agRTVIahGCSFDcVbncxn/C0YzvqQ9CPcVCL7keEkwqagtOc7F4EhtuNoH3bwcOn00lbA+Sxih9ermayWhFBzhqCn3F6axS9U0oyslg4svkAfVpYYso36kCs1/Qc/5Y87xQnDEowUYDiQ+F9QQAcwjdnWxT4MJeq7TVD9JnjyUbI3l7FG73Ecgqt1V7+74t9ePhBfNzKWRqvyg/dw56P8yHA42zVfYZ6yWR+qYN8UM+bF5ny2QD0Yd8CwKiUh8rUDjn/j/T4MNWJUeCUoMxWP/8ECu4mbxamPnubDtwidhib2wMXnB1/N/VKYD6kmETrkhS/sPfENqcrP/MROT1elMbqJPjexdcqfAPcQQnp1R1FMYMgPZZYMUpjb0uTgxnmhRsKQfuMU8YM+/k9ioG+hrZif+3sx1NA9n81ZxBrcrIDpAq8XPTMs6dKgY2Mzds74n3yY96HF/VLi1oq2icF3Bv9DCpL6xu4tGesqHTaxrYTJm/HTQVHBrfMV5avZniMZbOYTQ1m/dZ4ZEvGBeYn7xA8emcCEj+2T0l7xoUQTdWHXD9eAkRdDLJj4EI8M4f2OIcKDBw20sTRjqFh/nP4+Gl7yUvZYKbtcD1EysJrhdaVUfQ8BkCKcDPgD3BFPUJyB84XZP5J8xqiko+c+BAe0jp8Z6oN2UpVVPyxVvpR5GSM7z55ltxX40MamiedDhlxiExyZikgKSfTkFUsalSpFMAUexO/AUE4YKkqEHa53YAdaU52Cwhp/L9pgFAWnaDViCJpN6zzpseCEOQ6zuNFldrI9vFgtzLUUnyOeNqi2km3zSXzoizWHn9nPik4EVtZjZru6V523rF+HXDH74kwTznklQuP3ApHpkWJzhuClktmxbu2BMQaGDp9AZnMILzo5SWpfNKq7dxF0qJJUbcE/uDVIVDJoNZPSP2H+PzROhagyzKTw8zmR+B7ToWfxi44IMcZ6z4vMz8q8bNpkrQe6y8bPJ4hu3WNNrzWRExsoHnRguFi/9TQCDL15bKFNZgdvvVc5w/khe8kp16xYr/p8dUyTxnrwm9XkVSrJmQmMVdWxMWOYObUgBIYwDnnFAjDkU1OlA2G9qRyBu43GRsnicmZonoxco7DXAmOl1SiGrS4a/ydPWerBfzXajWK7ohGp3nCKUQsYUkKOGsUiXFYtAMN2u52c711sFZXabQ+ahrcNf1X3p2bXwhDdWa3Oh4CSZGp021GjvYiEoVOET0e8DzWN1lr8pzteECzJYvBT1OCltZZ1clelkrTr+VUzvD24PQDAGyYb7elBggHR6E3ym2SNvTDgX94eVODr4OARlRL/M0Zzv1/UeDjvVh/OarXRw/eAqGiWe3VnD0gjAF7ud/7p++yaudDvFEJTjYgg5/a0Vqud9d+53NrvlRKerzA/qsFzpTbo3bONnm3HlpIiRLrqgucrdXAFCj7wfRK54qKnX8435s1/pM/HaBgzOT+gxpvQhRVseIYOP/F6C8pLuua/ECWDf9ZlyjcvzE/lLKxa9+b7C8CwJieWz7+Rs9AMUYT2gU+iOmNHaXYZnSb7E8mP+OMy0myr49OP/I9nJedcqxIQk2YZe15fA8Nh9pM0B1rVh9A44LdAK+hP2SMJEWkB8Et+gjf/SGjCcP4sYPOoj7qmEZ7H/b9dxpAjR44cOXLkyJEjR44cOXLkyJEjR44cOXLkyJEjR44cOXLkyJEjR44cOXLkyJEjR44cOXbAfwNor+O8vfHzSwAAAABJRU5ErkJggg==;" parent="1" vertex="1">
          <mxGeometry x="547.5" y="175" width="75" height="75" as="geometry" />
        </mxCell>
        <mxCell id="7C1NRrJqVAyDI8BYBDWS-33" value="&lt;span id=&quot;docs-internal-guid-12f1508e-7fff-334d-2ea0-3c9bda85f875&quot;&gt;&lt;span style=&quot;font-family: Verdana, sans-serif; background-color: rgb(255, 255, 255); font-variant-numeric: normal; font-variant-east-asian: normal; font-variant-alternates: normal; font-variant-position: normal; vertical-align: baseline; white-space-collapse: preserve;&quot;&gt;&lt;font style=&quot;font-size: 12px;&quot;&gt;Mini Stepper Motor&lt;br/&gt;for fan&lt;/font&gt;&lt;/span&gt;&lt;/span&gt;" style="rounded=0;whiteSpace=wrap;html=1;" parent="1" vertex="1">
          <mxGeometry x="240" y="360" width="90" height="50" as="geometry" />
        </mxCell>
        <mxCell id="7C1NRrJqVAyDI8BYBDWS-35" style="edgeStyle=orthogonalEdgeStyle;rounded=0;orthogonalLoop=1;jettySize=auto;html=1;entryX=0.5;entryY=0;entryDx=0;entryDy=0;endArrow=none;endFill=0;curved=1;exitX=0.341;exitY=1.004;exitDx=0;exitDy=0;exitPerimeter=0;" parent="1" source="7C1NRrJqVAyDI8BYBDWS-24" target="UcwjOUbkR6Jzpgp7nH0Y-1" edge="1">
          <mxGeometry relative="1" as="geometry">
            <mxPoint x="117" y="250" as="sourcePoint" />
            <mxPoint x="143.5999999999999" y="355" as="targetPoint" />
          </mxGeometry>
        </mxCell>
        <mxCell id="7C1NRrJqVAyDI8BYBDWS-36" style="rounded=0;orthogonalLoop=1;jettySize=auto;html=1;entryX=0.5;entryY=0;entryDx=0;entryDy=0;edgeStyle=orthogonalEdgeStyle;curved=1;exitX=0.655;exitY=1.004;exitDx=0;exitDy=0;endArrow=none;endFill=0;exitPerimeter=0;" parent="1" source="7C1NRrJqVAyDI8BYBDWS-24" target="7C1NRrJqVAyDI8BYBDWS-33" edge="1">
          <mxGeometry relative="1" as="geometry">
            <mxPoint x="248" y="-182" as="sourcePoint" />
            <mxPoint x="291" y="-110" as="targetPoint" />
          </mxGeometry>
        </mxCell>
        <mxCell id="7C1NRrJqVAyDI8BYBDWS-39" value="&lt;span id=&quot;docs-internal-guid-a733cf6b-7fff-f4bd-78ce-0aa34640285a&quot;&gt;&lt;span style=&quot;font-family: Verdana, sans-serif; background-color: rgb(255, 255, 255); font-variant-numeric: normal; font-variant-east-asian: normal; font-variant-alternates: normal; font-variant-position: normal; vertical-align: baseline; white-space-collapse: preserve; font-size: 11px;&quot;&gt;MiCS-VZ-89TE CO2 Sensor&lt;/span&gt;&lt;/span&gt;" style="rounded=0;whiteSpace=wrap;html=1;" parent="1" vertex="1">
          <mxGeometry x="540" y="360" width="90" height="50" as="geometry" />
        </mxCell>
        <mxCell id="UcwjOUbkR6Jzpgp7nH0Y-1" value="&lt;span id=&quot;docs-internal-guid-12f1508e-7fff-334d-2ea0-3c9bda85f875&quot;&gt;&lt;span style=&quot;font-family: Verdana, sans-serif; background-color: rgb(255, 255, 255); font-variant-numeric: normal; font-variant-east-asian: normal; font-variant-alternates: normal; font-variant-position: normal; vertical-align: baseline; white-space-collapse: preserve;&quot;&gt;&lt;font style=&quot;font-size: 12px;&quot;&gt;Mini Stepper Motor&lt;br/&gt;for window&lt;/font&gt;&lt;/span&gt;&lt;/span&gt;" style="rounded=0;whiteSpace=wrap;html=1;" vertex="1" parent="1">
          <mxGeometry x="102" y="360" width="90" height="50" as="geometry" />
        </mxCell>
        <mxCell id="UcwjOUbkR6Jzpgp7nH0Y-2" value="" style="html=1;verticalLabelPosition=bottom;align=center;labelBackgroundColor=#ffffff;verticalAlign=top;strokeWidth=2;strokeColor=#0080F0;shadow=0;dashed=0;shape=mxgraph.ios7.icons.locked;" vertex="1" parent="1">
          <mxGeometry x="384" y="263" width="24" height="30" as="geometry" />
        </mxCell>
      </root>
    </mxGraphModel>
  </diagram>
</mxfile>
